PathFileType  4	(X/Y/Z) C:\Users\antoi\Documents\MyRepositories\mobilecap\ResultsAnalysis
DataRate	CameraRate	NumFrames	NumMarkers	Units	OrigDataRate	OrigDataStartFrame	OrigNumFrames
100.0	100.0	4	51	mm	100.0	50	132
Frame#	Time	r_knee			r_shank_antsup			r_ankle			r_calc			r_5meta			r_toe			L_knee			L_shank_antsup			L_ankle			L_calc			L_5meta			L_toe			r_sh2			r_sh3			r_sh4			L_sh2			L_sh3			r_thigh1			r_thigh2			r_thigh3			r_thigh4			r_thigh5			L_thigh1			L_thigh2			L_thigh3			L_thigh4			r.ASIS			r.PSIS			L.ASIS			L.PSIS			C7			R_Shoulder			L_Shoulder			R_Sternum			L_Sternum			R_humerus			R_elbow_med			R_elbow_lat			R_forearm			R_wrist_radius			R_wrist_ulna			L_humerus			L_elbow_med			L_elbow_lat			L_forearm			L_wrist_radius			L_wrist_ulna			R_HJC			L_HJC			R_HJC_reg			L_HJC_reg			
		X1	Y1	Z1	X2	Y2	Z2	X3	Y3	Z3	X4	Y4	Z4	X5	Y5	Z5	X6	Y6	Z6	X7	Y7	Z7	X8	Y8	Z8	X9	Y9	Z9	X10	Y10	Z10	X11	Y11	Z11	X12	Y12	Z12	X13	Y13	Z13	X14	Y14	Z14	X15	Y15	Z15	X16	Y16	Z16	X17	Y17	Z17	X18	Y18	Z18	X19	Y19	Z19	X20	Y20	Z20	X21	Y21	Z21	X22	Y22	Z22	X23	Y23	Z23	X24	Y24	Z24	X25	Y25	Z25	X26	Y26	Z26	X27	Y27	Z27	X28	Y28	Z28	X29	Y29	Z29	X30	Y30	Z30	X31	Y31	Z31	X32	Y32	Z32	X33	Y33	Z33	X34	Y34	Z34	X35	Y35	Z35	X36	Y36	Z36	X37	Y37	Z37	X38	Y38	Z38	X39	Y39	Z39	X40	Y40	Z40	X41	Y41	Z41	X42	Y42	Z42	X43	Y43	Z43	X44	Y44	Z44	X45	Y45	Z45	X46	Y46	Z46	X47	Y47	Z47	X48	Y48	Z48	X49	Y49	Z49	X50	Y50	Z50	X51	Y51	Z51	

50	0.49000000	342.76109	485.44873	-58.53320	355.82267	408.27956	-78.63159	183.87197	110.27057	-107.93300	112.11309	85.61778	-149.84092	271.79953	44.13711	-63.85337	329.67253	65.34234	-115.51851	610.15946	493.49682	-329.82544	672.34796	424.26584	-346.26483	759.89634	116.34411	-327.19657	731.24860	56.21241	-266.86563	877.37441	102.11731	-384.21169	908.93589	154.25591	-343.49338	299.85625	306.71694	-61.59787	284.27993	442.29208	-48.73254	232.98387	342.06539	-55.74243	590.20779	397.64727	-326.35444	636.08394	285.36438	-338.70294	499.42144	771.50005	-13.45215	463.94845	665.23766	-31.38262	357.33690	687.89707	-11.64909	392.23649	799.14003	15.55790	405.16378	657.27827	-3.03619	525.39677	745.08005	-378.22337	589.12837	624.14012	-358.19722	432.25308	701.76032	-321.70991	502.24711	578.59010	-310.42970	546.32190	945.25880	-48.26957	356.45214	992.49989	-128.80369	544.86198	928.88376	-299.35563	346.85803	990.72576	-228.72452	347.45073	1389.65352	-183.63511	475.29861	1365.98815	-22.74869	397.82132	1358.60980	-369.86642	491.42684	1368.02369	-183.74253	489.72466	1368.91530	-228.26721	528.50261	1241.82559	32.55112	542.08803	1020.71036	-2.93474	565.66883	1044.95393	59.65432	698.15529	995.66351	42.68331	808.74039	922.29609	19.60438	798.78346	898.63172	45.14007	371.41538	1244.77741	-421.96138	308.96035	1029.02886	-319.83854	281.50499	1051.70390	-390.37115	283.07232	944.70907	-427.32819	228.54926	795.08162	-441.14384	197.52550	811.28622	-438.71347	463.39353	869.63728	-69.24227	461.37763	860.60745	-275.50146	475.92370	870.47122	-75.17237	460.05723	867.53629	-240.45909	
51	0.50000000	353.07158	483.97225	-59.04344	364.64829	406.31706	-78.99999	185.62442	112.33246	-107.34952	113.42114	89.12253	-149.22555	272.21933	44.16969	-63.58958	330.57934	64.86684	-115.14722	625.82663	493.03706	-331.05197	686.92436	422.30060	-345.95087	767.26311	113.08116	-326.55843	735.80284	54.07041	-267.69986	885.97515	97.34015	-380.51330	917.48224	148.50193	-338.47748	306.32871	305.97077	-61.61746	294.13835	441.91239	-49.04317	240.37025	343.05088	-55.68326	603.50408	397.27236	-328.88181	647.22048	284.20849	-340.84838	510.74508	769.72061	-14.18724	475.02135	663.52214	-31.60905	368.19946	686.74999	-12.72641	403.52802	797.96790	14.17868	415.97161	655.95519	-3.62658	541.07091	744.78023	-378.72472	604.61964	623.83861	-358.33613	447.03084	700.91374	-324.56973	516.76842	577.66100	-312.86468	558.59993	943.46591	-48.94858	369.09737	990.38613	-131.12220	558.46583	926.89992	-300.24483	360.00088	988.76117	-231.03242	359.94390	1387.80284	-185.37982	487.81775	1363.70039	-24.25678	410.92948	1356.95805	-371.60063	504.21201	1366.21369	-185.31787	502.65479	1367.08541	-229.83985	540.84870	1239.41538	30.74435	554.48190	1018.16616	-4.79567	577.92163	1042.51700	57.82836	710.76921	994.23873	40.34697	821.97244	921.93582	16.75893	812.02654	898.21643	42.16938	384.19081	1243.26771	-423.79338	321.14622	1027.66084	-321.51035	293.12701	1050.81374	-391.82525	293.32780	943.96725	-428.95804	236.83566	794.97812	-442.45472	206.04046	811.59978	-439.88611	475.69236	867.76526	-70.62317	475.01413	858.57553	-276.88945	488.50821	868.20641	-76.33847	473.44206	865.51628	-241.84866	
52	0.51000000	363.98341	482.43714	-59.66088	373.96468	404.32246	-79.42216	187.65205	114.73297	-106.75548	115.03581	93.19941	-148.57899	272.72368	44.26276	-63.30486	331.60304	64.31829	-114.75723	641.26089	492.66566	-332.40428	700.96737	420.18970	-345.83194	773.32444	109.60005	-325.53368	738.59668	52.73148	-267.94863	892.91517	91.31854	-376.37692	924.86780	141.35022	-333.23990	313.11951	305.32926	-61.69159	304.58458	441.56286	-49.45610	248.22169	344.21317	-55.71619	616.33046	397.07711	-331.01784	657.51570	283.09691	-342.34033	522.28765	768.05374	-15.02444	486.39460	661.87734	-31.90325	379.35271	685.64954	-13.93352	415.02281	796.85382	12.55485	427.09986	654.68571	-4.32075	557.59949	745.14078	-379.23088	620.72090	624.03089	-358.78879	462.45315	700.51237	-327.99886	531.73935	577.13656	-315.97437	571.16820	941.64558	-49.72107	382.00995	988.43509	-133.31248	572.22380	925.34053	-301.25238	373.27287	987.13917	-233.20370	372.53242	1386.16720	-187.21110	500.37102	1361.73930	-25.82938	424.11457	1355.44863	-373.41895	517.05149	1364.66840	-186.97633	515.64109	1365.50051	-231.50580	553.00905	1237.23623	28.93824	566.51061	1015.85422	-6.74222	589.76207	1040.25907	55.96340	722.87431	992.71796	38.10444	834.49343	921.21635	14.13004	824.59124	897.45060	39.43233	397.24840	1241.83449	-425.72758	333.82592	1026.27403	-323.39575	305.31390	1049.86539	-393.56357	304.44103	943.17683	-430.81307	246.27466	794.70461	-444.04591	215.66974	811.72272	-441.44325	488.25972	865.92426	-72.17569	488.77542	856.94771	-278.45510	501.42024	865.99136	-77.63420	486.92735	863.84500	-243.34779	
53	0.52000000	375.51120	480.95084	-60.38008	383.80925	402.36742	-79.90233	190.02925	117.55748	-106.17639	117.04669	97.91325	-147.93916	273.32363	44.46330	-63.01273	332.75391	63.68479	-114.35287	656.00532	492.25961	-333.73527	714.45687	418.11242	-345.83943	778.90477	106.26464	-324.28665	740.69002	52.36812	-267.72710	898.77198	84.75670	-372.26976	931.68921	133.47687	-328.24997	320.27765	304.90121	-61.83367	315.62343	441.32688	-50.00292	256.58491	345.61502	-55.87598	628.77466	396.95175	-332.67526	667.40905	282.07535	-343.19293	534.12879	766.53945	-16.03481	498.15572	660.35736	-32.36359	390.89078	684.61182	-15.32715	426.81165	795.82216	10.65790	438.62718	653.50220	-5.19483	574.58994	745.91444	-379.87435	636.98364	624.45798	-359.50415	478.22441	700.54626	-331.77355	546.82533	576.98575	-319.43441	584.06323	939.82748	-50.66002	395.20481	986.69920	-135.36439	586.14703	924.30669	-302.43654	386.69973	985.90484	-235.24317	385.22784	1384.76354	-189.11883	512.94276	1360.15430	-27.44768	437.38945	1354.10271	-375.30212	529.94465	1363.41085	-188.69651	528.68544	1364.18769	-233.24147	564.97884	1235.33483	27.16464	578.15296	1013.84388	-8.78573	601.17571	1038.22626	54.05983	734.44912	991.12538	35.95834	846.30254	920.14690	11.72549	836.46271	896.32740	36.94051	410.57776	1240.51092	-427.72838	346.93065	1024.91805	-325.47091	318.03593	1048.88433	-395.55728	316.39757	942.35675	-432.87957	256.90781	794.25147	-445.91943	226.45379	811.63695	-443.39651	501.14780	864.14564	-73.95924	502.67720	855.80951	-280.25930	514.66845	863.91029	-79.13555	500.54257	862.59506	-245.02209	
